<?xml version="1.0" encoding="UTF-8" standalone="no"?>
<!-- Created with Inkscape (http://www.inkscape.org/) -->

<svg
   width="111.1849mm"
   height="13.477364mm"
   viewBox="0 0 111.1849 13.477364"
   version="1.1"
   id="svg1"
   xml:space="preserve"
   inkscape:version="1.3.2 (091e20e, 2023-11-25, custom)"
   sodipodi:docname="index - コピー.svg"
   xmlns:inkscape="http://www.inkscape.org/namespaces/inkscape"
   xmlns:sodipodi="http://sodipodi.sourceforge.net/DTD/sodipodi-0.dtd"
   xmlns="http://www.w3.org/2000/svg"
   xmlns:svg="http://www.w3.org/2000/svg"><sodipodi:namedview
     id="namedview1"
     pagecolor="#ffffff"
     bordercolor="#000000"
     borderopacity="0.25"
     inkscape:showpageshadow="2"
     inkscape:pageopacity="0.0"
     inkscape:pagecheckerboard="0"
     inkscape:deskcolor="#d1d1d1"
     inkscape:document-units="mm"
     inkscape:zoom="1.8139766"
     inkscape:cx="214.17035"
     inkscape:cy="124.31252"
     inkscape:window-width="1920"
     inkscape:window-height="1009"
     inkscape:window-x="-8"
     inkscape:window-y="-8"
     inkscape:window-maximized="1"
     inkscape:current-layer="layer1" /><defs
     id="defs1"><clipPath
       clipPathUnits="userSpaceOnUse"
       id="clipPath4"><rect
         style="fill:#e3073d;stroke:#e3073d;stroke-width:1.14043;stroke-linejoin:round"
         id="rect4"
         width="32.83112"
         height="32.83112"
         x="102.49899"
         y="29.294001"
         ry="1.5854468" /></clipPath></defs><g
     inkscape:label="Layer 1"
     inkscape:groupmode="layer"
     id="layer1"
     transform="translate(-42.588,-0.54865788)"><g
       id="g37"
       transform="matrix(1.0608609,0,0,1.0608609,18.09414,-23.331314)"><path
         id="rect1-4-2"
         style="fill:#ffffff;fill-opacity:1;stroke:#a4e0cf;stroke-width:0.544;stroke-linejoin:round;stroke-dasharray:none;stroke-opacity:1"
         d="m 55.018959,31.361147 -5.910872,1.790512 5.910872,1.790512 5.911066,-1.790512 z" /><path
         id="rect1-4-2-1"
         style="fill:#ffffff;fill-opacity:1;stroke:#a4e0cf;stroke-width:0.544;stroke-linejoin:round;stroke-dasharray:none;stroke-opacity:1"
         d="m 43.903593,31.361147 -5.910872,1.790512 5.910872,1.790512 5.911063,-1.790512 z" /><path
         id="rect1-4-2-11"
         style="fill:#ffffff;fill-opacity:1;stroke:#a4e0cf;stroke-width:0.544;stroke-linejoin:round;stroke-dasharray:none;stroke-opacity:1"
         d="m 77.201479,31.298401 -5.910873,1.790512 5.910873,1.790512 5.91106,-1.790512 z" /><path
         id="rect1-4-2-1-9"
         style="fill:#ffffff;fill-opacity:1;stroke:#a4e0cf;stroke-width:0.544;stroke-linejoin:round;stroke-dasharray:none;stroke-opacity:1"
         d="m 66.086112,31.298401 -5.910872,1.790512 5.910872,1.790512 5.911063,-1.790512 z" /><path
         id="rect1-4-2-7"
         style="fill:#ffffff;fill-opacity:1;stroke:#a4e0cf;stroke-width:0.544;stroke-linejoin:round;stroke-dasharray:none;stroke-opacity:1"
         d="m 99.529441,31.324379 -5.910872,1.790512 5.910872,1.790512 5.911069,-1.790512 z" /><path
         id="rect1-4-2-1-6"
         style="fill:#ffffff;fill-opacity:1;stroke:#a4e0cf;stroke-width:0.544;stroke-linejoin:round;stroke-dasharray:none;stroke-opacity:1"
         d="m 88.414075,31.324379 -5.910872,1.790512 5.910872,1.790512 5.911063,-1.790512 z" /><path
         id="rect1-4-2-11-8"
         style="fill:#ffffff;fill-opacity:1;stroke:#a4e0cf;stroke-width:0.544;stroke-linejoin:round;stroke-dasharray:none;stroke-opacity:1"
         d="m 121.71196,31.261633 -5.91087,1.790512 5.91087,1.790512 5.91106,-1.790512 z" /><path
         id="rect1-4-2-1-9-6"
         style="fill:#ffffff;fill-opacity:1;stroke:#a4e0cf;stroke-width:0.544;stroke-linejoin:round;stroke-dasharray:none;stroke-opacity:1"
         d="m 110.59659,31.261633 -5.91087,1.790512 5.91087,1.790512 5.91107,-1.790512 z" /><path
         id="rect1-4-2-9"
         style="fill:#ffffff;fill-opacity:1;stroke:#a4e0cf;stroke-width:0.544;stroke-linejoin:round;stroke-dasharray:none;stroke-opacity:1"
         d="m 60.470878,29.589108 -5.910874,1.790512 5.910874,1.790512 5.91106,-1.790512 z" /><path
         id="rect1-4-2-1-62"
         style="fill:#ffffff;fill-opacity:1;stroke:#a4e0cf;stroke-width:0.544;stroke-linejoin:round;stroke-dasharray:none;stroke-opacity:1"
         d="m 49.35551,29.589108 -5.910872,1.790512 5.910872,1.790512 5.911063,-1.790512 z" /><path
         id="rect1-4-2-11-3"
         style="fill:#ffffff;fill-opacity:1;stroke:#a4e0cf;stroke-width:0.544;stroke-linejoin:round;stroke-dasharray:none;stroke-opacity:1"
         d="m 82.653398,29.526362 -5.91088,1.790512 5.91088,1.790512 5.91106,-1.790512 z" /><path
         id="rect1-4-2-1-9-7"
         style="fill:#ffffff;fill-opacity:1;stroke:#a4e0cf;stroke-width:0.544;stroke-linejoin:round;stroke-dasharray:none;stroke-opacity:1"
         d="m 71.538028,29.526362 -5.91087,1.790512 5.91087,1.790512 5.91106,-1.790512 z" /><path
         id="rect1-4-2-7-4"
         style="fill:#ffffff;fill-opacity:1;stroke:#a4e0cf;stroke-width:0.544;stroke-linejoin:round;stroke-dasharray:none;stroke-opacity:1"
         d="m 104.98136,29.55234 -5.910872,1.790512 5.910872,1.790512 5.91107,-1.790512 z" /><path
         id="rect1-4-2-1-6-2"
         style="fill:#ffffff;fill-opacity:1;stroke:#a4e0cf;stroke-width:0.544;stroke-linejoin:round;stroke-dasharray:none;stroke-opacity:1"
         d="m 93.865988,29.55234 -5.91087,1.790512 5.91087,1.790512 5.91107,-1.790512 z" /><path
         id="rect1-4-2-1-9-6-4"
         style="fill:#ffffff;fill-opacity:1;stroke:#a4e0cf;stroke-width:0.544;stroke-linejoin:round;stroke-dasharray:none;stroke-opacity:1"
         d="m 116.04851,29.489594 -5.91087,1.790512 5.91087,1.790512 5.91107,-1.790512 z" /><path
         id="path39"
         style="fill:none;fill-opacity:1;stroke:#a4e0cf;stroke-width:0.544;stroke-linejoin:round;stroke-dasharray:none;stroke-opacity:1"
         d="m 29.271469,31.198568 -5.910872,1.790512 5.910872,1.790512 5.911063,-1.790512 z" /><path
         id="path38"
         style="fill:#f9426f;fill-opacity:1;stroke:#f9426f;stroke-width:1.09816;stroke-linejoin:round;stroke-dasharray:none;stroke-opacity:1"
         d="m 28.881379,25.741794 -3.90113,2.015525 1.41821,4.504913 2.60193,0.97899 0.22722,0.198213 2.60069,-1.067085 1.41891,-4.504913 -3.90112,-2.015525 -0.23024,4.91768 z"
         sodipodi:nodetypes="cccccccccc" /><path
         id="path41"
         style="fill:#f3ec90;fill-opacity:1;stroke:none;stroke-width:1.0095;stroke-linejoin:round;stroke-dasharray:none;stroke-opacity:1"
         d="m 29.308598,32.479101 a 3.5366424,1.4146569 0 0 0 -2.205366,0.310394 l 1.886494,0.710126 0.304525,0.264747 2.308397,-0.946833 a 3.5366424,1.4146569 0 0 0 -2.29405,-0.338434 z" /><path
         style="fill:#cb652c;fill-opacity:1;stroke:#cb652c;stroke-width:0.754104;stroke-linejoin:round;stroke-dasharray:none;stroke-opacity:1"
         d="m 28.872521,27.032766 -0.487737,-4.145769 -1.788372,1.95095 z"
         id="path40" /><ellipse
         style="fill:#f3ec90;fill-opacity:1;stroke:none;stroke-width:0.754104;stroke-linejoin:round;stroke-dasharray:none;stroke-opacity:1"
         id="path42"
         cx="32.124104"
         cy="28.211464"
         rx="0.97547489"
         ry="1.0161197" /><path
         style="fill:#42a082;fill-opacity:1;stroke:none;stroke-width:0.355246;stroke-linejoin:round;stroke-dasharray:none;stroke-opacity:1"
         d="m 28.547363,24.775689 c 0.957354,-2.872064 4.020889,-1.64665 4.020889,-1.64665 0,0 1.37859,-0.306353 -0.26806,0.574413 -2.45016,1.310551 -3.752829,1.072237 -3.752829,1.072237 z"
         id="path43"
         sodipodi:nodetypes="ccsc" /></g><text
       xml:space="preserve"
       style="font-size:9.99904px;fill:#2fb992;fill-opacity:1;stroke:#ffffff;stroke-width:1.817;stroke-linecap:round;stroke-linejoin:round;stroke-dasharray:none;stroke-opacity:0.760984;paint-order:stroke markers fill"
       x="61.124676"
       y="11.201509"
       id="text1"><tspan
         id="tspan1"
         style="font-style:normal;font-variant:normal;font-weight:normal;font-stretch:normal;font-size:9.99904px;font-family:'NicoMoji+v2';-inkscape-font-specification:'NicoMoji+v2, Normal';font-variant-ligatures:normal;font-variant-caps:normal;font-variant-numeric:normal;font-variant-east-asian:normal;fill:#2fb992;fill-opacity:1;stroke:#ffffff;stroke-width:1.817;stroke-linecap:round;stroke-dasharray:none;stroke-opacity:0.760984;paint-order:stroke markers fill"
         x="61.124676"
         y="11.201509"
         sodipodi:role="line">ニチヨウ・ブツリ</tspan></text></g></svg>
