<?xml version="1.0" encoding="UTF-8" standalone="no"?>
<!-- Created with Inkscape (http://www.inkscape.org/) -->

<svg
   width="111.1849mm"
   height="13.477364mm"
   viewBox="0 0 111.1849 13.477364"
   version="1.1"
   id="svg1"
   xml:space="preserve"
   inkscape:version="1.3.2 (091e20e, 2023-11-25, custom)"
   sodipodi:docname="banner.svg"
   xmlns:inkscape="http://www.inkscape.org/namespaces/inkscape"
   xmlns:sodipodi="http://sodipodi.sourceforge.net/DTD/sodipodi-0.dtd"
   xmlns="http://www.w3.org/2000/svg"
   xmlns:svg="http://www.w3.org/2000/svg"><sodipodi:namedview
     id="namedview1"
     pagecolor="#ffffff"
     bordercolor="#000000"
     borderopacity="0.25"
     inkscape:showpageshadow="2"
     inkscape:pageopacity="0.0"
     inkscape:pagecheckerboard="0"
     inkscape:deskcolor="#d1d1d1"
     inkscape:document-units="mm"
     inkscape:zoom="5.1307006"
     inkscape:cx="225.018"
     inkscape:cy="76.110463"
     inkscape:window-width="1920"
     inkscape:window-height="1009"
     inkscape:window-x="-8"
     inkscape:window-y="-8"
     inkscape:window-maximized="1"
     inkscape:current-layer="layer1" /><defs
     id="defs1"><clipPath
       clipPathUnits="userSpaceOnUse"
       id="clipPath4"><rect
         style="fill:#e3073d;stroke:#e3073d;stroke-width:1.14043;stroke-linejoin:round"
         id="rect4"
         width="32.83112"
         height="32.83112"
         x="102.49899"
         y="29.294001"
         ry="1.5854468" /></clipPath></defs><g
     inkscape:label="Layer 1"
     inkscape:groupmode="layer"
     id="layer1"
     transform="translate(-42.588,-0.54865788)"><g
       id="g37"
       transform="matrix(1.0608609,0,0,1.0608609,18.09414,-23.331314)"><path
         id="rect1-4-2"
         style="fill:#ffffff;fill-opacity:1;stroke:#a4e0cf;stroke-width:0.544;stroke-linejoin:round;stroke-dasharray:none;stroke-opacity:1"
         d="m 55.018959,31.361147 -5.910872,1.790512 5.910872,1.790512 5.911066,-1.790512 z" /><path
         id="rect1-4-2-1"
         style="fill:#ffffff;fill-opacity:1;stroke:#a4e0cf;stroke-width:0.544;stroke-linejoin:round;stroke-dasharray:none;stroke-opacity:1"
         d="m 43.903593,31.361147 -5.910872,1.790512 5.910872,1.790512 5.911063,-1.790512 z" /><path
         id="rect1-4-2-11"
         style="fill:#ffffff;fill-opacity:1;stroke:#a4e0cf;stroke-width:0.544;stroke-linejoin:round;stroke-dasharray:none;stroke-opacity:1"
         d="m 77.201479,31.298401 -5.910873,1.790512 5.910873,1.790512 5.91106,-1.790512 z" /><path
         id="rect1-4-2-1-9"
         style="fill:#ffffff;fill-opacity:1;stroke:#a4e0cf;stroke-width:0.544;stroke-linejoin:round;stroke-dasharray:none;stroke-opacity:1"
         d="m 66.086112,31.298401 -5.910872,1.790512 5.910872,1.790512 5.911063,-1.790512 z" /><path
         id="rect1-4-2-7"
         style="fill:#ffffff;fill-opacity:1;stroke:#a4e0cf;stroke-width:0.544;stroke-linejoin:round;stroke-dasharray:none;stroke-opacity:1"
         d="m 99.529441,31.324379 -5.910872,1.790512 5.910872,1.790512 5.911069,-1.790512 z" /><path
         id="rect1-4-2-1-6"
         style="fill:#ffffff;fill-opacity:1;stroke:#a4e0cf;stroke-width:0.544;stroke-linejoin:round;stroke-dasharray:none;stroke-opacity:1"
         d="m 88.414075,31.324379 -5.910872,1.790512 5.910872,1.790512 5.911063,-1.790512 z" /><path
         id="rect1-4-2-11-8"
         style="fill:#ffffff;fill-opacity:1;stroke:#a4e0cf;stroke-width:0.544;stroke-linejoin:round;stroke-dasharray:none;stroke-opacity:1"
         d="m 121.71196,31.261633 -5.91087,1.790512 5.91087,1.790512 5.91106,-1.790512 z" /><path
         id="rect1-4-2-1-9-6"
         style="fill:#ffffff;fill-opacity:1;stroke:#a4e0cf;stroke-width:0.544;stroke-linejoin:round;stroke-dasharray:none;stroke-opacity:1"
         d="m 110.59659,31.261633 -5.91087,1.790512 5.91087,1.790512 5.91107,-1.790512 z" /><path
         id="rect1-4-2-9"
         style="fill:#ffffff;fill-opacity:1;stroke:#a4e0cf;stroke-width:0.544;stroke-linejoin:round;stroke-dasharray:none;stroke-opacity:1"
         d="m 60.470878,29.589108 -5.910874,1.790512 5.910874,1.790512 5.91106,-1.790512 z" /><path
         id="rect1-4-2-1-62"
         style="fill:#ffffff;fill-opacity:1;stroke:#a4e0cf;stroke-width:0.544;stroke-linejoin:round;stroke-dasharray:none;stroke-opacity:1"
         d="m 49.35551,29.589108 -5.910872,1.790512 5.910872,1.790512 5.911063,-1.790512 z" /><path
         id="rect1-4-2-11-3"
         style="fill:#ffffff;fill-opacity:1;stroke:#a4e0cf;stroke-width:0.544;stroke-linejoin:round;stroke-dasharray:none;stroke-opacity:1"
         d="m 82.653398,29.526362 -5.91088,1.790512 5.91088,1.790512 5.91106,-1.790512 z" /><path
         id="rect1-4-2-1-9-7"
         style="fill:#ffffff;fill-opacity:1;stroke:#a4e0cf;stroke-width:0.544;stroke-linejoin:round;stroke-dasharray:none;stroke-opacity:1"
         d="m 71.538028,29.526362 -5.91087,1.790512 5.91087,1.790512 5.91106,-1.790512 z" /><path
         id="rect1-4-2-7-4"
         style="fill:#ffffff;fill-opacity:1;stroke:#a4e0cf;stroke-width:0.544;stroke-linejoin:round;stroke-dasharray:none;stroke-opacity:1"
         d="m 104.98136,29.55234 -5.910872,1.790512 5.910872,1.790512 5.91107,-1.790512 z" /><path
         id="rect1-4-2-1-6-2"
         style="fill:#ffffff;fill-opacity:1;stroke:#a4e0cf;stroke-width:0.544;stroke-linejoin:round;stroke-dasharray:none;stroke-opacity:1"
         d="m 93.865988,29.55234 -5.91087,1.790512 5.91087,1.790512 5.91107,-1.790512 z" /><path
         id="rect1-4-2-1-9-6-4"
         style="fill:#ffffff;fill-opacity:1;stroke:#a4e0cf;stroke-width:0.544;stroke-linejoin:round;stroke-dasharray:none;stroke-opacity:1"
         d="m 116.04851,29.489594 -5.91087,1.790512 5.91087,1.790512 5.91107,-1.790512 z" /><path
         id="path39"
         style="fill:none;fill-opacity:1;stroke:#a4e0cf;stroke-width:0.544;stroke-linejoin:round;stroke-dasharray:none;stroke-opacity:1"
         d="m 29.271469,31.198568 -5.910872,1.790512 5.910872,1.790512 5.911063,-1.790512 z" /><path
         id="path38"
         style="fill:#f9426f;fill-opacity:1;stroke:#f9426f;stroke-width:1.09816;stroke-linejoin:round;stroke-dasharray:none;stroke-opacity:1"
         d="m 28.881379,25.741794 -3.90113,2.015525 1.41821,4.504913 2.60193,0.97899 0.22722,0.198213 2.60069,-1.067085 1.41891,-4.504913 -3.90112,-2.015525 -0.23024,4.91768 z"
         sodipodi:nodetypes="cccccccccc" /><path
         id="path41"
         style="fill:#f3ec90;fill-opacity:1;stroke:none;stroke-width:1.0095;stroke-linejoin:round;stroke-dasharray:none;stroke-opacity:1"
         d="m 29.308598,32.479101 a 3.5366424,1.4146569 0 0 0 -2.205366,0.310394 l 1.886494,0.710126 0.304525,0.264747 2.308397,-0.946833 a 3.5366424,1.4146569 0 0 0 -2.29405,-0.338434 z" /><path
         style="fill:#cb652c;fill-opacity:1;stroke:#cb652c;stroke-width:0.754104;stroke-linejoin:round;stroke-dasharray:none;stroke-opacity:1"
         d="m 28.872521,27.032766 -0.487737,-4.145769 -1.788372,1.95095 z"
         id="path40" /><ellipse
         style="fill:#f3ec90;fill-opacity:1;stroke:none;stroke-width:0.754104;stroke-linejoin:round;stroke-dasharray:none;stroke-opacity:1"
         id="path42"
         cx="32.124104"
         cy="28.211464"
         rx="0.97547489"
         ry="1.0161197" /><path
         style="fill:#42a082;fill-opacity:1;stroke:none;stroke-width:0.355246;stroke-linejoin:round;stroke-dasharray:none;stroke-opacity:1"
         d="m 28.547363,24.775689 c 0.957354,-2.872064 4.020889,-1.64665 4.020889,-1.64665 0,0 1.37859,-0.306353 -0.26806,0.574413 -2.45016,1.310551 -3.752829,1.072237 -3.752829,1.072237 z"
         id="path43"
         sodipodi:nodetypes="ccsc" /></g><path
       style="font-size:9.99904px;font-family:'NicoMoji+v2';-inkscape-font-specification:'NicoMoji+v2, Normal';fill:#2fb992;stroke:#ffffff;stroke-width:1.817;stroke-linecap:round;stroke-linejoin:round;stroke-opacity:0.760984;paint-order:stroke markers fill"
       d="m 61.710557,10.527746 q 0,-0.273411 0.185529,-0.45894 0.195294,-0.195294 0.468705,-0.195294 H 67.0909 q 0.273411,0 0.468705,0.185529 0.185529,0.195294 0.185529,0.468705 0,0.273411 -0.195294,0.468705 -0.185529,0.185529 -0.45894,0.185529 h -4.726109 q -0.273411,0 -0.45894,-0.195294 -0.195294,-0.185529 -0.195294,-0.45894 z m 0,-4.4526973 q 0,-0.2734112 0.185529,-0.4589403 0.195294,-0.1952937 0.468705,-0.1952937 H 67.0909 q 0.273411,0 0.468705,0.185529 0.185529,0.1952938 0.185529,0.468705 0,0.2734113 -0.195294,0.468705 -0.185529,0.1855291 -0.45894,0.1855291 h -4.726109 q -0.273411,0 -0.45894,-0.1952938 Q 61.710557,6.34846 61.710557,6.0750487 Z m 7.225869,0 q 0,-0.2734112 0.185529,-0.4589403 0.195293,-0.1952937 0.468705,-0.1952937 h 5.233872 q 0.273411,0 0.468705,0.185529 0.185529,0.1952938 0.185529,0.468705 0,0.2734113 -0.195294,0.468705 -0.185529,0.1855291 -0.45894,0.1855291 h -1.445174 l -0.126941,0.8788218 h 1.611174 q 0.273411,0 0.468705,0.1855291 0.185529,0.1952937 0.185529,0.4687049 0,0.2734113 -0.195294,0.468705 -0.185529,0.1855291 -0.45894,0.1855291 h -1.806467 l -0.04882,0.31247 q -0.117176,0.8104693 -0.703057,1.3865853 -0.585881,0.576117 -1.308468,0.566352 h -1.347527 q -0.263647,-0.0098 -0.449176,-0.185529 -0.175764,-0.185529 -0.185529,-0.449176 0,-0.273411 0.175765,-0.468705 0.185529,-0.1952933 0.45894,-0.205058 h 1.171762 q 0.361294,0 0.595646,-0.2343525 0.244117,-0.2343525 0.322235,-0.7225868 h -2.109173 q -0.273411,0 -0.45894,-0.1952938 -0.195294,-0.185529 -0.195294,-0.4589403 0,-0.2734112 0.185529,-0.4589403 0.195294,-0.1952937 0.468705,-0.1952937 h 2.304467 L 72.061126,6.7292828 H 69.59066 q -0.273412,0 -0.458941,-0.1952938 Q 68.936426,6.34846 68.936426,6.0750487 Z m 12.186329,-0.654234 q 0.683528,0.039059 1.122939,0.5272931 0.439411,0.4784697 0.634704,1.0936449 0.195294,0.6151753 0.195294,1.2596447 0,0.6444693 -0.195294,1.2596446 -0.185529,0.615175 -0.634704,1.10341 -0.439411,0.478469 -1.122939,0.517528 h -0.185529 -3.583641 q -0.263646,-0.0098 -0.449175,-0.185529 -0.175765,-0.185529 -0.185529,-0.449176 0,-0.273411 0.175764,-0.468705 0.185529,-0.1952933 0.45894,-0.205058 h 3.43717 q 0.371058,-0.019529 0.615176,-0.2831759 0.244117,-0.2636466 0.351528,-0.5956459 0.117177,-0.3417641 0.117177,-0.6932928 0,-0.3515287 -0.117177,-0.6835281 Q 81.650048,7.2761052 81.405931,7.0124587 81.161813,6.7488121 80.790755,6.7292828 h -3.43717 q -0.585881,-0.048824 -0.634704,-0.6347047 0,-0.2734112 0.175764,-0.468705 0.185529,-0.1952937 0.45894,-0.2050584 h 3.319994 z M 76.73841,8.2623386 q 0,-0.2734112 0.185529,-0.4589403 0.195294,-0.1952937 0.468705,-0.1952937 h 2.948936 q 0.273411,0 0.468705,0.1855291 0.185529,0.1952937 0.185529,0.4687049 0,0.2734113 -0.195294,0.468705 -0.185529,0.1855291 -0.45894,0.1855291 h -2.948936 q -0.273411,0 -0.45894,-0.1952938 Q 76.73841,8.5357499 76.73841,8.2623386 Z m 8.505044,-2.3337602 h 1.796702 V 5.7821081 q 0.0098,-0.2734112 0.205058,-0.4491756 0.195294,-0.1855291 0.468705,-0.1855291 0.263647,0.00976 0.449176,0.1952938 0.185529,0.1757643 0.195294,0.4394109 v 0.1464703 h 2.060349 q 0.273411,0 0.468705,0.1855291 0.205058,0.2148231 0.185529,0.4687049 l -0.214823,1.7869378 q -0.09765,0.6932928 -0.361294,1.3084681 -0.283176,0.6151757 -0.790939,1.0448217 -0.498,0.419881 -1.181528,0.45894 h -0.898351 q -0.263646,-0.0098 -0.449175,-0.185529 -0.175765,-0.185529 -0.185529,-0.449176 0,-0.273411 0.175764,-0.468705 0.185529,-0.1952933 0.45894,-0.205058 h 0.742116 q 0.371059,-0.019529 0.64447,-0.2831759 0.283176,-0.2636466 0.390587,-0.5956459 0.107412,-0.3417641 0.156235,-0.7421162 l 0.07812,-0.7714103 q 0.02929,-0.2343525 -0.166,-0.2441172 H 85.96604 q -0.331999,0.00976 -0.322234,0.3319994 v 0.9862334 q -0.05859,0.5858812 -0.64447,0.6347046 -0.273411,0 -0.478469,-0.1757643 Q 84.325573,8.8286905 84.325573,8.5552793 V 6.7976356 q 0.0098,-0.4101169 0.244117,-0.6347047 0.234353,-0.2343525 0.673764,-0.2343525 z m 7.704336,2.3825837 q 0,-0.2929406 0.205059,-0.4979991 0.205058,-0.2050584 0.497999,-0.2050584 0.29294,0 0.497999,0.2050584 0.205058,0.2050585 0.205058,0.4979991 0,0.2929406 -0.205058,0.497999 -0.205059,0.2050585 -0.497999,0.2050585 -0.292941,0 -0.497999,-0.2050585 Q 92.94779,8.6041027 92.94779,8.3111621 Z m 3.251643,-2.2361134 q 0,-0.2734112 0.185529,-0.4589403 0.195294,-0.1952937 0.468705,-0.1952937 h 5.331523 q 0.27341,0 0.4687,0.185529 0.20506,0.2148232 0.18553,0.468705 l -0.31247,2.2947015 q -0.0977,0.6932928 -0.36129,1.3084681 -0.28318,0.6151757 -0.79094,1.0448217 -0.498,0.419881 -1.18153,0.45894 h -1.835761 q -0.263646,-0.0098 -0.449175,-0.185529 -0.175765,-0.185529 -0.185529,-0.449176 0,-0.273411 0.175764,-0.468705 0.185529,-0.1952933 0.45894,-0.205058 h 1.679531 q 0.37105,-0.019529 0.64446,-0.2831759 0.28318,-0.2636466 0.39059,-0.5956459 0.10741,-0.3417641 0.15624,-0.7421162 l 0.17576,-1.2791741 q 0.0293,-0.2343525 -0.166,-0.2441171 h -4.384343 q -0.273411,0 -0.45894,-0.1952938 Q 96.199433,6.34846 96.199433,6.0750487 Z m 3.710581,-1.747879 q 0,-0.2929406 0.205056,-0.497999 0.20506,-0.2050585 0.498,-0.2050585 0.29294,0 0.498,0.2050585 0.20506,0.2050584 0.20506,0.497999 0,0.2929406 -0.20506,0.4979991 -0.20506,0.2050584 -0.498,0.2050584 -0.29294,0 -0.498,-0.2050584 -0.205056,-0.2050585 -0.205056,-0.4979991 z m 1.679526,0 q 0,-0.2929406 0.20506,-0.497999 0.20506,-0.2050585 0.498,-0.2050585 0.29294,0 0.498,0.2050585 0.20506,0.2050584 0.20506,0.497999 0,0.2929406 -0.20506,0.4979991 -0.20506,0.2050584 -0.498,0.2050584 -0.29294,0 -0.498,-0.2050584 -0.20506,-0.2050585 -0.20506,-0.4979991 z m 9.02257,1.9529374 -0.82023,2.6169362 q -0.39059,1.1131747 -0.97647,1.6795257 -0.58588,0.566352 -1.27918,0.605411 h -0.78117 q -0.26365,-0.0098 -0.44918,-0.185529 -0.17576,-0.185529 -0.18553,-0.449176 0,-0.273411 0.17577,-0.468705 0.18553,-0.1952933 0.45894,-0.205058 h 0.44917 q 0.37106,-0.019529 0.6933,-0.2831759 0.332,-0.2636466 0.498,-0.5956459 0.166,-0.3417641 0.28317,-0.7421162 l 0.72259,-2.4021131 q 0.0683,-0.2050584 0.19529,-0.3319994 0.13671,-0.1367056 0.41012,-0.1367056 0.26365,0 0.44918,0.1952938 0.19529,0.1952937 0.19529,0.468705 0,0.1269409 -0.0391,0.2343524 z m -5.64399,-0.8592924 q 0.26365,0.00976 0.44918,0.1952937 0.18553,0.1757644 0.19529,0.4394109 v 1.9919962 q -0.0586,0.5858813 -0.64447,0.6347047 -0.27341,0 -0.47847,-0.1757644 -0.19529,-0.185529 -0.19529,-0.4589403 V 6.0555193 q 0.01,-0.2734112 0.20506,-0.4491756 0.19529,-0.185529 0.4687,-0.185529 z m 1.95294,0 q 0.26364,0.00976 0.44917,0.1952937 0.18553,0.1757644 0.1953,0.4394109 v 1.9919962 q -0.0586,0.5858813 -0.64447,0.6347047 -0.27341,0 -0.47847,-0.1757644 -0.1953,-0.185529 -0.1953,-0.4589403 V 6.0555193 q 0.01,-0.2734112 0.20506,-0.4491756 0.1953,-0.185529 0.46871,-0.185529 z m 5.78069,-0.156235 q 0.26365,0.00976 0.44918,0.1952937 0.18553,0.1757644 0.19529,0.4394109 v 2.7731712 q -0.0586,0.5858812 -0.64447,0.6347047 -0.27341,0 -0.47847,-0.1757644 -0.19529,-0.1855291 -0.19529,-0.4589403 V 5.8992843 q 0.01,-0.2734112 0.20506,-0.4491756 0.19529,-0.185529 0.4687,-0.185529 z m 4.21835,0 q 0.26364,0.00976 0.44917,0.1952937 0.18553,0.1757644 0.1953,0.4394109 v 2.4704659 q -0.01,0.6932928 -0.1953,1.3084681 -0.19529,0.6151757 -0.64447,1.0448217 -0.43941,0.419881 -1.12294,0.45894 h -0.62494 q -0.26364,-0.0098 -0.44917,-0.185529 -0.17577,-0.185529 -0.18553,-0.449176 0,-0.273411 0.17576,-0.468705 0.18553,-0.1952933 0.45894,-0.205058 h 0.29294 q 0.37106,-0.019529 0.61518,-0.2831759 0.24412,-0.2636466 0.30271,-0.5956459 0.0684,-0.3417641 0.0586,-0.7421162 V 5.8992843 q 0.01,-0.2734112 0.20506,-0.4491756 0.1953,-0.185529 0.46871,-0.185529 z"
       id="text1"
       aria-label="ニチヨウ・ブツリ" /></g></svg>
